<svg width="60" height="60" viewBox="0 0 60 60" fill="none" xmlns="http://www.w3.org/2000/svg">
<path fill-rule="evenodd" clip-rule="evenodd" d="M22.5009 13.1249C22.5009 12.0894 23.3403 11.2499 24.3759 11.2499C25.4114 11.2499 26.2509 12.0894 26.2509 13.1249C26.2509 14.1604 25.4114 14.9999 24.3759 14.9999C23.3403 14.9999 22.5009 14.1604 22.5009 13.1249ZM18.7507 16.875C18.7507 15.8395 19.5902 15 20.6257 15C21.6613 15 22.5007 15.8395 22.5007 16.875C22.5007 17.9105 21.6613 18.75 20.6257 18.75C19.5902 18.75 18.7507 17.9105 18.7507 16.875ZM15.0006 20.6249C15.0006 19.5894 15.8401 18.7499 16.8756 18.7499C17.9111 18.7499 18.7506 19.5894 18.7506 20.6249C18.7506 21.6604 17.9111 22.4999 16.8756 22.4999C15.8401 22.4999 15.0006 21.6604 15.0006 20.6249ZM11.2505 24.375C11.2505 23.3395 12.09 22.5 13.1255 22.5C14.161 22.5 15.0005 23.3395 15.0005 24.375C15.0005 25.4057 14.1689 26.2421 13.1401 26.25C14.1689 26.2578 15.0005 27.0943 15.0005 28.1249C15.0005 29.1604 14.161 29.9999 13.1255 29.9999C12.09 29.9999 11.2505 29.1604 11.2505 28.1249C11.2505 27.0943 12.082 26.2578 13.1108 26.25C12.082 26.2421 11.2505 25.4057 11.2505 24.375ZM11.2505 31.875C11.2505 30.8395 12.09 30 13.1255 30C14.161 30 15.0005 30.8395 15.0005 31.875C15.0005 32.9057 14.1689 33.7422 13.14 33.75C14.1689 33.7578 15.0005 34.5942 15.0005 35.6249C15.0005 36.6604 14.161 37.4999 13.1255 37.4999C12.09 37.4999 11.2505 36.6604 11.2505 35.6249C11.2505 34.5942 12.0821 33.7578 13.111 33.75C12.0821 33.7422 11.2505 32.9057 11.2505 31.875ZM15.0006 39.375C15.0006 38.3395 15.8401 37.5 16.8756 37.5C17.9111 37.5 18.7506 38.3395 18.7506 39.375C18.7506 40.4106 17.9111 41.25 16.8756 41.25C15.8401 41.25 15.0006 40.4106 15.0006 39.375ZM18.7507 43.1249C18.7507 42.0894 19.5902 41.2499 20.6257 41.2499C21.6613 41.2499 22.5007 42.0894 22.5007 43.1249C22.5007 44.1605 21.6613 44.9999 20.6257 44.9999C19.5902 44.9999 18.7507 44.1605 18.7507 43.1249ZM22.5009 46.875C22.5009 45.8395 23.3403 45 24.3759 45C25.4114 45 26.2509 45.8395 26.2509 46.875C26.2509 47.9106 25.4114 48.75 24.3759 48.75C23.3403 48.75 22.5009 47.9106 22.5009 46.875ZM28.126 45C27.0904 45 26.251 45.8395 26.251 46.875C26.251 47.9106 27.0904 48.75 28.126 48.75C29.1421 48.75 29.9694 47.9418 30.0001 46.9332C30.0308 47.9418 30.8581 48.75 31.8742 48.75C32.9097 48.75 33.7492 47.9106 33.7492 46.875C33.7492 45.8395 32.9097 45 31.8742 45C30.8581 45 30.0308 45.8083 30.0001 46.8169C29.9694 45.8083 29.1421 45 28.126 45ZM35.6243 45C34.5888 45 33.7493 45.8395 33.7493 46.875C33.7493 47.9106 34.5888 48.75 35.6243 48.75C36.6599 48.75 37.4993 47.9106 37.4993 46.875C37.4993 45.8395 36.6599 45 35.6243 45ZM39.3745 41.2499C38.3389 41.2499 37.4995 42.0894 37.4995 43.1249C37.4995 44.1605 38.3389 44.9999 39.3745 44.9999C40.41 44.9999 41.2495 44.1605 41.2495 43.1249C41.2495 42.0894 40.41 41.2499 39.3745 41.2499ZM43.1246 37.5C42.089 37.5 41.2496 38.3395 41.2496 39.375C41.2496 40.4106 42.089 41.25 43.1246 41.25C44.1601 41.25 44.9996 40.4106 44.9996 39.375C44.9996 38.3395 44.1601 37.5 43.1246 37.5ZM46.8602 33.75C45.8313 33.7578 44.9997 34.5942 44.9997 35.6249C44.9997 36.6604 45.8392 37.4999 46.8747 37.4999C47.9102 37.4999 48.7497 36.6604 48.7497 35.6249C48.7497 34.5942 47.9181 33.7578 46.8892 33.75C47.9181 33.7422 48.7497 32.9057 48.7497 31.875C48.7497 30.8395 47.9102 30 46.8747 30C45.8392 30 44.9997 30.8395 44.9997 31.875C44.9997 32.9057 45.8313 33.7422 46.8602 33.75ZM46.86 26.25C45.8313 26.2578 44.9997 27.0943 44.9997 28.1249C44.9997 29.1604 45.8392 29.9999 46.8747 29.9999C47.9102 29.9999 48.7497 29.1604 48.7497 28.1249C48.7497 27.0943 47.9181 26.2578 46.8893 26.25C47.9181 26.2421 48.7497 25.4057 48.7497 24.375C48.7497 23.3395 47.9102 22.5 46.8747 22.5C45.8392 22.5 44.9997 23.3395 44.9997 24.375C44.9997 25.4057 45.8313 26.2421 46.86 26.25ZM43.1246 18.7499C42.089 18.7499 41.2496 19.5894 41.2496 20.6249C41.2496 21.6604 42.089 22.4999 43.1246 22.4999C44.1601 22.4999 44.9996 21.6604 44.9996 20.6249C44.9996 19.5894 44.1601 18.7499 43.1246 18.7499ZM39.3745 15C38.3389 15 37.4995 15.8395 37.4995 16.875C37.4995 17.9105 38.3389 18.75 39.3745 18.75C40.41 18.75 41.2495 17.9105 41.2495 16.875C41.2495 15.8395 40.41 15 39.3745 15ZM35.6243 11.2499C34.5888 11.2499 33.7493 12.0894 33.7493 13.1249C33.7493 14.1604 34.5888 14.9999 35.6243 14.9999C36.6599 14.9999 37.4993 14.1604 37.4993 13.1249C37.4993 12.0894 36.6599 11.2499 35.6243 11.2499ZM26.251 13.1249C26.251 12.0894 27.0904 11.2499 28.126 11.2499C29.1421 11.2499 29.9694 12.0581 30.0001 13.0668C30.0308 12.0581 30.8581 11.2499 31.8742 11.2499C32.9097 11.2499 33.7492 12.0894 33.7492 13.1249C33.7492 14.1604 32.9097 14.9999 31.8742 14.9999C30.8581 14.9999 30.0308 14.1917 30.0001 13.183C29.9694 14.1917 29.1421 14.9999 28.126 14.9999C27.0904 14.9999 26.251 14.1604 26.251 13.1249ZM22.5009 28.1249C22.5009 27.0894 23.3403 26.2499 24.3759 26.2499C25.4114 26.2499 26.2509 27.0894 26.2509 28.1249C26.2509 29.1604 25.4114 29.9999 24.3759 29.9999C23.3403 29.9999 22.5009 29.1604 22.5009 28.1249ZM35.6243 26.2499C34.5888 26.2499 33.7493 27.0894 33.7493 28.1249C33.7493 29.1604 34.5888 29.9999 35.6243 29.9999C36.6599 29.9999 37.4993 29.1604 37.4993 28.1249C37.4993 27.0894 36.6599 26.2499 35.6243 26.2499ZM22.5009 31.875C22.5009 30.8395 23.3403 30 24.3759 30C25.4114 30 26.2509 30.8395 26.2509 31.875C26.2509 32.9106 25.4114 33.75 24.3759 33.75C23.3403 33.75 22.5009 32.9106 22.5009 31.875ZM35.6243 30C34.5888 30 33.7493 30.8395 33.7493 31.875C33.7493 32.9106 34.5888 33.75 35.6243 33.75C36.6599 33.75 37.4993 32.9106 37.4993 31.875C37.4993 30.8395 36.6599 30 35.6243 30ZM26.251 39.375C26.251 38.3395 27.0904 37.5 28.126 37.5C29.1421 37.5 29.9694 38.3083 30.0001 39.3169C30.0308 38.3083 30.8581 37.5 31.8742 37.5C32.9097 37.5 33.7492 38.3395 33.7492 39.375C33.7492 40.4106 32.9097 41.25 31.8742 41.25C30.8581 41.25 30.0308 40.4418 30.0001 39.4332C29.9694 40.4418 29.1421 41.25 28.126 41.25C27.0904 41.25 26.251 40.4106 26.251 39.375ZM41.2496 13.1249C41.2496 12.0894 42.089 11.2499 43.1246 11.2499C44.1601 11.2499 44.9996 12.0894 44.9996 13.1249C44.9996 14.1604 44.1601 14.9999 43.1246 14.9999C42.089 14.9999 41.2496 14.1604 41.2496 13.1249ZM16.8756 11.2499C15.8401 11.2499 15.0006 12.0894 15.0006 13.1249C15.0006 14.1604 15.8401 14.9999 16.8756 14.9999C17.9111 14.9999 18.7506 14.1604 18.7506 13.1249C18.7506 12.0894 17.9111 11.2499 16.8756 11.2499Z" fill="#1D1D1D"/>
</svg>
